<svg xmlns="http://www.w3.org/2000/svg" version="1.1" xmlns:xlink="http://www.w3.org/1999/xlink" xmlns:svgjs="http://svgjs.com/svgjs" width="512" height="512" x="0" y="0" viewBox="0 0 64 64" style="enable-background:new 0 0 512 512" xml:space="preserve" class=""><g><path fill="#e7ddc0" d="M43.847 52.522A8 8 0 0 1 49 60a2 2 0 0 1-2 2H17a2 2 0 0 1-2-2 8 8 0 0 1 5.153-7.478z" data-original="#f8efd2" class=""></path><path d="M20.153 52.522a7.977 7.977 0 0 0-2.08 1.175A35.371 35.371 0 0 0 31.8 57.99a1.985 1.985 0 0 0 .4 0 35.372 35.372 0 0 0 13.726-4.29 7.943 7.943 0 0 0-2.079-1.175z" opacity=".1" fill="#000000" data-original="#000000"></path><path fill="#e7ddc0" d="M49.992 18.013A15.534 15.534 0 0 0 58 20h1.2a2.8 2.8 0 0 1 2.8 2.792v.058A33.315 33.315 0 0 1 32 56 33.315 33.315 0 0 1 2 22.85v-.058A2.8 2.8 0 0 1 4.8 20H6a15.534 15.534 0 0 0 8.008-1.987l3.5-2.97c3.15-3.738 4.09-8.651 4.371-11.251A2 2 0 0 1 23.869 2h16.262a2 2 0 0 1 1.988 1.792c.281 2.6 1.221 7.513 4.371 11.251z" data-original="#f8efd2" class=""></path><path fill="#ffffff" d="M29.881 3.792c-.281 2.6-1.221 7.513-4.371 11.251l-3.5 2.97A15.534 15.534 0 0 1 14 20h-1.2a2.8 2.8 0 0 0-2.8 2.792v.058a33.314 33.314 0 0 0 26 32.5 33.314 33.314 0 0 0 26-32.5v-.058A2.8 2.8 0 0 0 59.205 20H58a15.534 15.534 0 0 1-8.008-1.987l-3.5-2.97c-3.15-3.738-4.09-8.651-4.371-11.251A2 2 0 0 0 40.131 2h-8.262a2 2 0 0 0-1.988 1.792z" opacity=".3" data-original="#ffffff" class=""></path><path fill="#99dbe0" d="M18.005 20.828A3 3 0 1 1 20 18v.173z" data-original="#99dbe0"></path><path fill="#c2e9ec" d="M22.005 23.827A3 3 0 1 1 24 21v.173z" data-original="#c2e9ec"></path><path fill="#99dbe0" d="M27.044 26.2a3 3 0 1 1 .914-2.7zM46 20.828A3 3 0 1 0 44 18c0 .058 0 .116.005.173z" data-original="#99dbe0"></path><path fill="#c2e9ec" d="M42 23.827A3 3 0 1 0 40 21c0 .058 0 .116.005.173z" data-original="#c2e9ec"></path><path fill="#99dbe0" d="M36.956 26.2a3 3 0 1 0-.907-2.741z" data-original="#99dbe0"></path><path fill="#e99cbf" d="M28.04 28.045a3.235 3.235 0 0 1-.988-2.878 3.414 3.414 0 0 1 .533-1.261 2.123 2.123 0 0 1 2.4-.8A4.605 4.605 0 0 1 32.028 25a4.605 4.605 0 0 1 2.04-1.895 2.123 2.123 0 0 1 2.4.8l.021.031a3.329 3.329 0 0 1-.542 4.174L32.028 32z" data-original="#e99cbf"></path></g></svg>